<svg width="449" height="138" viewBox="0 0 449 138" fill="none" xmlns="http://www.w3.org/2000/svg">
<rect width="445" height="138" transform="translate(2)" fill="white"/>
<rect x="1" y="40" width="447" height="79" rx="4" stroke="#36A6D6" stroke-width="2"/>
<rect width="364" height="75" transform="translate(13)" fill="white"/>
<path d="M45.75 44.5312H51.75C51.4375 47.4062 50.6146 49.9792 49.2812 52.25C47.9479 54.5208 46.0625 56.3229 43.625 57.6562C41.1875 58.9688 38.1458 59.625 34.5 59.625C31.8333 59.625 29.4062 59.125 27.2188 58.125C25.0521 57.125 23.1875 55.7083 21.625 53.875C20.0625 52.0208 18.8542 49.8021 18 47.2188C17.1667 44.6146 16.75 41.7188 16.75 38.5312V34C16.75 30.8125 17.1667 27.9271 18 25.3438C18.8542 22.7396 20.0729 20.5104 21.6562 18.6562C23.2604 16.8021 25.1875 15.375 27.4375 14.375C29.6875 13.375 32.2188 12.875 35.0312 12.875C38.4688 12.875 41.375 13.5208 43.75 14.8125C46.125 16.1042 47.9688 17.8958 49.2812 20.1875C50.6146 22.4583 51.4375 25.0938 51.75 28.0938H45.75C45.4583 25.9688 44.9167 24.1458 44.125 22.625C43.3333 21.0833 42.2083 19.8958 40.75 19.0625C39.2917 18.2292 37.3854 17.8125 35.0312 17.8125C33.0104 17.8125 31.2292 18.1979 29.6875 18.9688C28.1667 19.7396 26.8854 20.8333 25.8438 22.25C24.8229 23.6667 24.0521 25.3646 23.5312 27.3438C23.0104 29.3229 22.75 31.5208 22.75 33.9375V38.5312C22.75 40.7604 22.9792 42.8542 23.4375 44.8125C23.9167 46.7708 24.6354 48.4896 25.5938 49.9688C26.5521 51.4479 27.7708 52.6146 29.25 53.4688C30.7292 54.3021 32.4792 54.7188 34.5 54.7188C37.0625 54.7188 39.1042 54.3125 40.625 53.5C42.1458 52.6875 43.2917 51.5208 44.0625 50C44.8542 48.4792 45.4167 46.6562 45.75 44.5312ZM64.875 11V59H59.0938V11H64.875ZM63.5 40.8125L61.0938 40.7188C61.1146 38.4062 61.4583 36.2708 62.125 34.3125C62.7917 32.3333 63.7292 30.6146 64.9375 29.1562C66.1458 27.6979 67.5833 26.5729 69.25 25.7812C70.9375 24.9688 72.8021 24.5625 74.8438 24.5625C76.5104 24.5625 78.0104 24.7917 79.3438 25.25C80.6771 25.6875 81.8125 26.3958 82.75 27.375C83.7083 28.3542 84.4375 29.625 84.9375 31.1875C85.4375 32.7292 85.6875 34.6146 85.6875 36.8438V59H79.875V36.7812C79.875 35.0104 79.6146 33.5938 79.0938 32.5312C78.5729 31.4479 77.8125 30.6667 76.8125 30.1875C75.8125 29.6875 74.5833 29.4375 73.125 29.4375C71.6875 29.4375 70.375 29.7396 69.1875 30.3438C68.0208 30.9479 67.0104 31.7812 66.1562 32.8438C65.3229 33.9062 64.6667 35.125 64.1875 36.5C63.7292 37.8542 63.5 39.2917 63.5 40.8125ZM114.281 53.2188V35.8125C114.281 34.4792 114.01 33.3229 113.469 32.3438C112.948 31.3438 112.156 30.5729 111.094 30.0312C110.031 29.4896 108.719 29.2188 107.156 29.2188C105.698 29.2188 104.417 29.4688 103.312 29.9688C102.229 30.4688 101.375 31.125 100.75 31.9375C100.146 32.75 99.8438 33.625 99.8438 34.5625H94.0625C94.0625 33.3542 94.375 32.1562 95 30.9688C95.625 29.7812 96.5208 28.7083 97.6875 27.75C98.875 26.7708 100.292 26 101.938 25.4375C103.604 24.8542 105.458 24.5625 107.5 24.5625C109.958 24.5625 112.125 24.9792 114 25.8125C115.896 26.6458 117.375 27.9062 118.438 29.5938C119.521 31.2604 120.062 33.3542 120.062 35.875V51.625C120.062 52.75 120.156 53.9479 120.344 55.2188C120.552 56.4896 120.854 57.5833 121.25 58.5V59H115.219C114.927 58.3333 114.698 57.4479 114.531 56.3438C114.365 55.2188 114.281 54.1771 114.281 53.2188ZM115.281 38.5L115.344 42.5625H109.5C107.854 42.5625 106.385 42.6979 105.094 42.9688C103.802 43.2188 102.719 43.6042 101.844 44.125C100.969 44.6458 100.302 45.3021 99.8438 46.0938C99.3854 46.8646 99.1562 47.7708 99.1562 48.8125C99.1562 49.875 99.3958 50.8438 99.875 51.7188C100.354 52.5938 101.073 53.2917 102.031 53.8125C103.01 54.3125 104.208 54.5625 105.625 54.5625C107.396 54.5625 108.958 54.1875 110.312 53.4375C111.667 52.6875 112.74 51.7708 113.531 50.6875C114.344 49.6042 114.781 48.5521 114.844 47.5312L117.312 50.3125C117.167 51.1875 116.771 52.1562 116.125 53.2188C115.479 54.2812 114.615 55.3021 113.531 56.2812C112.469 57.2396 111.198 58.0417 109.719 58.6875C108.26 59.3125 106.615 59.625 104.781 59.625C102.49 59.625 100.479 59.1771 98.75 58.2812C97.0417 57.3854 95.7083 56.1875 94.75 54.6875C93.8125 53.1667 93.3438 51.4688 93.3438 49.5938C93.3438 47.7812 93.6979 46.1875 94.4062 44.8125C95.1146 43.4167 96.1354 42.2604 97.4688 41.3438C98.8021 40.4062 100.406 39.6979 102.281 39.2188C104.156 38.7396 106.25 38.5 108.562 38.5H115.281ZM134.969 11V59H129.156V11H134.969ZM155.625 25.1875L140.875 40.9688L132.625 49.5312L132.156 43.375L138.062 36.3125L148.562 25.1875H155.625ZM150.344 59L138.281 42.875L141.281 37.7188L157.156 59H150.344ZM182.281 51.1875V25.1875H188.094V59H182.562L182.281 51.1875ZM183.375 44.0625L185.781 44C185.781 46.25 185.542 48.3333 185.062 50.25C184.604 52.1458 183.854 53.7917 182.812 55.1875C181.771 56.5833 180.406 57.6771 178.719 58.4688C177.031 59.2396 174.979 59.625 172.562 59.625C170.917 59.625 169.406 59.3854 168.031 58.9062C166.677 58.4271 165.51 57.6875 164.531 56.6875C163.552 55.6875 162.792 54.3854 162.25 52.7812C161.729 51.1771 161.469 49.25 161.469 47V25.1875H167.25V47.0625C167.25 48.5833 167.417 49.8438 167.75 50.8438C168.104 51.8229 168.573 52.6042 169.156 53.1875C169.76 53.75 170.427 54.1458 171.156 54.375C171.906 54.6042 172.677 54.7188 173.469 54.7188C175.927 54.7188 177.875 54.25 179.312 53.3125C180.75 52.3542 181.781 51.0729 182.406 49.4688C183.052 47.8438 183.375 46.0417 183.375 44.0625ZM203.188 11V59H197.375V11H203.188ZM232.406 53.2188V35.8125C232.406 34.4792 232.135 33.3229 231.594 32.3438C231.073 31.3438 230.281 30.5729 229.219 30.0312C228.156 29.4896 226.844 29.2188 225.281 29.2188C223.823 29.2188 222.542 29.4688 221.438 29.9688C220.354 30.4688 219.5 31.125 218.875 31.9375C218.271 32.75 217.969 33.625 217.969 34.5625H212.188C212.188 33.3542 212.5 32.1562 213.125 30.9688C213.75 29.7812 214.646 28.7083 215.812 27.75C217 26.7708 218.417 26 220.062 25.4375C221.729 24.8542 223.583 24.5625 225.625 24.5625C228.083 24.5625 230.25 24.9792 232.125 25.8125C234.021 26.6458 235.5 27.9062 236.562 29.5938C237.646 31.2604 238.188 33.3542 238.188 35.875V51.625C238.188 52.75 238.281 53.9479 238.469 55.2188C238.677 56.4896 238.979 57.5833 239.375 58.5V59H233.344C233.052 58.3333 232.823 57.4479 232.656 56.3438C232.49 55.2188 232.406 54.1771 232.406 53.2188ZM233.406 38.5L233.469 42.5625H227.625C225.979 42.5625 224.51 42.6979 223.219 42.9688C221.927 43.2188 220.844 43.6042 219.969 44.125C219.094 44.6458 218.427 45.3021 217.969 46.0938C217.51 46.8646 217.281 47.7708 217.281 48.8125C217.281 49.875 217.521 50.8438 218 51.7188C218.479 52.5938 219.198 53.2917 220.156 53.8125C221.135 54.3125 222.333 54.5625 223.75 54.5625C225.521 54.5625 227.083 54.1875 228.438 53.4375C229.792 52.6875 230.865 51.7708 231.656 50.6875C232.469 49.6042 232.906 48.5521 232.969 47.5312L235.438 50.3125C235.292 51.1875 234.896 52.1562 234.25 53.2188C233.604 54.2812 232.74 55.3021 231.656 56.2812C230.594 57.2396 229.323 58.0417 227.844 58.6875C226.385 59.3125 224.74 59.625 222.906 59.625C220.615 59.625 218.604 59.1771 216.875 58.2812C215.167 57.3854 213.833 56.1875 212.875 54.6875C211.938 53.1667 211.469 51.4688 211.469 49.5938C211.469 47.7812 211.823 46.1875 212.531 44.8125C213.24 43.4167 214.26 42.2604 215.594 41.3438C216.927 40.4062 218.531 39.6979 220.406 39.2188C222.281 38.7396 224.375 38.5 226.688 38.5H233.406ZM291.625 54.0938V59H268.875V54.0938H291.625ZM270.062 13.5V59H264.031V13.5H270.062ZM303.938 25.1875V59H298.125V25.1875H303.938ZM297.688 16.2188C297.688 15.2812 297.969 14.4896 298.531 13.8438C299.115 13.1979 299.969 12.875 301.094 12.875C302.198 12.875 303.042 13.1979 303.625 13.8438C304.229 14.4896 304.531 15.2812 304.531 16.2188C304.531 17.1146 304.229 17.8854 303.625 18.5312C303.042 19.1562 302.198 19.4688 301.094 19.4688C299.969 19.4688 299.115 19.1562 298.531 18.5312C297.969 17.8854 297.688 17.1146 297.688 16.2188ZM319 32.4062V59H313.219V25.1875H318.688L319 32.4062ZM317.625 40.8125L315.219 40.7188C315.24 38.4062 315.583 36.2708 316.25 34.3125C316.917 32.3333 317.854 30.6146 319.062 29.1562C320.271 27.6979 321.708 26.5729 323.375 25.7812C325.062 24.9688 326.927 24.5625 328.969 24.5625C330.635 24.5625 332.135 24.7917 333.469 25.25C334.802 25.6875 335.938 26.3958 336.875 27.375C337.833 28.3542 338.562 29.625 339.062 31.1875C339.562 32.7292 339.812 34.6146 339.812 36.8438V59H334V36.7812C334 35.0104 333.74 33.5938 333.219 32.5312C332.698 31.4479 331.938 30.6667 330.938 30.1875C329.938 29.6875 328.708 29.4375 327.25 29.4375C325.812 29.4375 324.5 29.7396 323.312 30.3438C322.146 30.9479 321.135 31.7812 320.281 32.8438C319.448 33.9062 318.792 35.125 318.312 36.5C317.854 37.8542 317.625 39.2917 317.625 40.8125ZM354.406 11V59H348.594V11H354.406ZM375.062 25.1875L360.312 40.9688L352.062 49.5312L351.594 43.375L357.5 36.3125L368 25.1875H375.062ZM369.781 59L357.719 42.875L360.719 37.7188L376.594 59H369.781Z" fill="#079E4A"/>
<rect width="307" height="47" transform="translate(13 91)" fill="white"/>
<path d="M31.457 120.812C31.457 120.148 31.3529 119.562 31.1445 119.055C30.9492 118.534 30.5977 118.065 30.0898 117.648C29.5951 117.232 28.9049 116.835 28.0195 116.457C27.1471 116.079 26.0404 115.695 24.6992 115.305C23.293 114.888 22.0234 114.426 20.8906 113.918C19.7578 113.397 18.7878 112.805 17.9805 112.141C17.1732 111.477 16.5547 110.715 16.125 109.855C15.6953 108.996 15.4805 108.013 15.4805 106.906C15.4805 105.799 15.7083 104.777 16.1641 103.84C16.6198 102.902 17.2708 102.089 18.1172 101.398C18.9766 100.695 19.9987 100.148 21.1836 99.7578C22.3685 99.3672 23.6901 99.1719 25.1484 99.1719C27.2839 99.1719 29.0938 99.582 30.5781 100.402C32.0755 101.21 33.2148 102.271 33.9961 103.586C34.7773 104.888 35.168 106.281 35.168 107.766H31.418C31.418 106.698 31.1901 105.754 30.7344 104.934C30.2786 104.1 29.5885 103.449 28.6641 102.98C27.7396 102.499 26.5677 102.258 25.1484 102.258C23.8073 102.258 22.7005 102.46 21.8281 102.863C20.9557 103.267 20.3047 103.814 19.875 104.504C19.4583 105.194 19.25 105.982 19.25 106.867C19.25 107.466 19.3737 108.013 19.6211 108.508C19.8815 108.99 20.2786 109.439 20.8125 109.855C21.3594 110.272 22.0495 110.656 22.8828 111.008C23.7292 111.359 24.7383 111.698 25.9102 112.023C27.5247 112.479 28.918 112.987 30.0898 113.547C31.2617 114.107 32.2253 114.738 32.9805 115.441C33.7487 116.132 34.3151 116.919 34.6797 117.805C35.0573 118.677 35.2461 119.667 35.2461 120.773C35.2461 121.932 35.0117 122.98 34.543 123.918C34.0742 124.855 33.4036 125.656 32.5312 126.32C31.6589 126.984 30.6107 127.499 29.3867 127.863C28.1758 128.215 26.8216 128.391 25.3242 128.391C24.0091 128.391 22.7135 128.208 21.4375 127.844C20.1745 127.479 19.0221 126.932 17.9805 126.203C16.9518 125.474 16.125 124.576 15.5 123.508C14.888 122.427 14.582 121.177 14.582 119.758H18.332C18.332 120.734 18.5208 121.574 18.8984 122.277C19.276 122.967 19.7904 123.54 20.4414 123.996C21.1055 124.452 21.8542 124.79 22.6875 125.012C23.5339 125.22 24.4128 125.324 25.3242 125.324C26.6393 125.324 27.7526 125.142 28.6641 124.777C29.5755 124.413 30.2656 123.892 30.7344 123.215C31.2161 122.538 31.457 121.737 31.457 120.812ZM43.1172 110.93V136.125H39.4844V106.867H42.8047L43.1172 110.93ZM57.3555 117.258V117.668C57.3555 119.204 57.1732 120.63 56.8086 121.945C56.444 123.247 55.9102 124.38 55.207 125.344C54.5169 126.307 53.6641 127.056 52.6484 127.59C51.6328 128.124 50.4674 128.391 49.1523 128.391C47.8112 128.391 46.6263 128.169 45.5977 127.727C44.569 127.284 43.6966 126.639 42.9805 125.793C42.2643 124.947 41.6914 123.931 41.2617 122.746C40.8451 121.561 40.5586 120.227 40.4023 118.742V116.555C40.5586 114.992 40.8516 113.592 41.2812 112.355C41.7109 111.118 42.2773 110.064 42.9805 109.191C43.6966 108.306 44.5625 107.635 45.5781 107.18C46.5938 106.711 47.7656 106.477 49.0938 106.477C50.4219 106.477 51.6003 106.737 52.6289 107.258C53.6576 107.766 54.5234 108.495 55.2266 109.445C55.9297 110.396 56.457 111.535 56.8086 112.863C57.1732 114.178 57.3555 115.643 57.3555 117.258ZM53.7227 117.668V117.258C53.7227 116.203 53.612 115.214 53.3906 114.289C53.1693 113.352 52.8242 112.531 52.3555 111.828C51.8997 111.112 51.3138 110.552 50.5977 110.148C49.8815 109.732 49.0286 109.523 48.0391 109.523C47.1276 109.523 46.3333 109.68 45.6562 109.992C44.9922 110.305 44.4258 110.728 43.957 111.262C43.4883 111.783 43.1042 112.382 42.8047 113.059C42.5182 113.723 42.3034 114.413 42.1602 115.129V120.188C42.4206 121.099 42.7852 121.958 43.2539 122.766C43.7227 123.56 44.3477 124.204 45.1289 124.699C45.9102 125.181 46.8932 125.422 48.0781 125.422C49.0547 125.422 49.8945 125.22 50.5977 124.816C51.3138 124.4 51.8997 123.833 52.3555 123.117C52.8242 122.401 53.1693 121.581 53.3906 120.656C53.612 119.719 53.7227 118.723 53.7227 117.668ZM65.5781 110.188V128H61.9648V106.867H65.4805L65.5781 110.188ZM72.1797 106.75L72.1602 110.109C71.8607 110.044 71.5742 110.005 71.3008 109.992C71.0404 109.966 70.7409 109.953 70.4023 109.953C69.569 109.953 68.8333 110.083 68.1953 110.344C67.5573 110.604 67.0169 110.969 66.5742 111.438C66.1315 111.906 65.7799 112.466 65.5195 113.117C65.2721 113.755 65.1094 114.458 65.0312 115.227L64.0156 115.812C64.0156 114.536 64.1393 113.339 64.3867 112.219C64.6471 111.099 65.0443 110.109 65.5781 109.25C66.112 108.378 66.7891 107.701 67.6094 107.219C68.4427 106.724 69.4323 106.477 70.5781 106.477C70.8385 106.477 71.138 106.509 71.4766 106.574C71.8151 106.626 72.0495 106.685 72.1797 106.75ZM83.8984 128.391C82.4271 128.391 81.0924 128.143 79.8945 127.648C78.7096 127.141 77.6875 126.431 76.8281 125.52C75.9818 124.608 75.3307 123.527 74.875 122.277C74.4193 121.027 74.1914 119.66 74.1914 118.176V117.355C74.1914 115.637 74.4453 114.107 74.9531 112.766C75.4609 111.411 76.151 110.266 77.0234 109.328C77.8958 108.391 78.8854 107.681 79.9922 107.199C81.099 106.717 82.2448 106.477 83.4297 106.477C84.9401 106.477 86.2422 106.737 87.3359 107.258C88.4427 107.779 89.3477 108.508 90.0508 109.445C90.7539 110.37 91.2747 111.464 91.6133 112.727C91.9518 113.977 92.1211 115.344 92.1211 116.828V118.449H76.3398V115.5H88.5078V115.227C88.4557 114.289 88.2604 113.378 87.9219 112.492C87.5964 111.607 87.0755 110.878 86.3594 110.305C85.6432 109.732 84.6667 109.445 83.4297 109.445C82.6094 109.445 81.8542 109.621 81.1641 109.973C80.474 110.311 79.8815 110.819 79.3867 111.496C78.8919 112.173 78.5078 113 78.2344 113.977C77.9609 114.953 77.8242 116.079 77.8242 117.355V118.176C77.8242 119.178 77.9609 120.122 78.2344 121.008C78.5208 121.88 78.931 122.648 79.4648 123.312C80.0117 123.977 80.6693 124.497 81.4375 124.875C82.2188 125.253 83.1042 125.441 84.0938 125.441C85.3698 125.441 86.4505 125.181 87.3359 124.66C88.2214 124.139 88.9961 123.443 89.6602 122.57L91.8477 124.309C91.3919 124.999 90.8125 125.656 90.1094 126.281C89.4062 126.906 88.5404 127.414 87.5117 127.805C86.4961 128.195 85.2917 128.391 83.8984 128.391ZM108.801 124.387V113.508C108.801 112.674 108.632 111.952 108.293 111.34C107.967 110.715 107.473 110.233 106.809 109.895C106.145 109.556 105.324 109.387 104.348 109.387C103.436 109.387 102.635 109.543 101.945 109.855C101.268 110.168 100.734 110.578 100.344 111.086C99.9661 111.594 99.7773 112.141 99.7773 112.727H96.1641C96.1641 111.971 96.3594 111.223 96.75 110.48C97.1406 109.738 97.7005 109.068 98.4297 108.469C99.1719 107.857 100.057 107.375 101.086 107.023C102.128 106.659 103.286 106.477 104.562 106.477C106.099 106.477 107.453 106.737 108.625 107.258C109.81 107.779 110.734 108.566 111.398 109.621C112.076 110.663 112.414 111.971 112.414 113.547V123.391C112.414 124.094 112.473 124.842 112.59 125.637C112.72 126.431 112.909 127.115 113.156 127.688V128H109.387C109.204 127.583 109.061 127.03 108.957 126.34C108.853 125.637 108.801 124.986 108.801 124.387ZM109.426 115.188L109.465 117.727H105.812C104.784 117.727 103.866 117.811 103.059 117.98C102.251 118.137 101.574 118.378 101.027 118.703C100.48 119.029 100.064 119.439 99.7773 119.934C99.4909 120.415 99.3477 120.982 99.3477 121.633C99.3477 122.297 99.4974 122.902 99.7969 123.449C100.096 123.996 100.546 124.432 101.145 124.758C101.757 125.07 102.505 125.227 103.391 125.227C104.497 125.227 105.474 124.992 106.32 124.523C107.167 124.055 107.837 123.482 108.332 122.805C108.84 122.128 109.113 121.47 109.152 120.832L110.695 122.57C110.604 123.117 110.357 123.723 109.953 124.387C109.549 125.051 109.009 125.689 108.332 126.301C107.668 126.9 106.874 127.401 105.949 127.805C105.038 128.195 104.009 128.391 102.863 128.391C101.431 128.391 100.174 128.111 99.0938 127.551C98.026 126.991 97.1927 126.242 96.5938 125.305C96.0078 124.354 95.7148 123.293 95.7148 122.121C95.7148 120.988 95.9362 119.992 96.3789 119.133C96.8216 118.26 97.4596 117.538 98.293 116.965C99.1263 116.379 100.129 115.936 101.301 115.637C102.473 115.337 103.781 115.188 105.227 115.188H109.426ZM131.418 123.898V98H135.051V128H131.73L131.418 123.898ZM117.199 117.668V117.258C117.199 115.643 117.395 114.178 117.785 112.863C118.189 111.535 118.755 110.396 119.484 109.445C120.227 108.495 121.105 107.766 122.121 107.258C123.15 106.737 124.296 106.477 125.559 106.477C126.887 106.477 128.046 106.711 129.035 107.18C130.038 107.635 130.884 108.306 131.574 109.191C132.277 110.064 132.831 111.118 133.234 112.355C133.638 113.592 133.918 114.992 134.074 116.555V118.352C133.931 119.901 133.651 121.294 133.234 122.531C132.831 123.768 132.277 124.823 131.574 125.695C130.884 126.568 130.038 127.238 129.035 127.707C128.033 128.163 126.861 128.391 125.52 128.391C124.283 128.391 123.15 128.124 122.121 127.59C121.105 127.056 120.227 126.307 119.484 125.344C118.755 124.38 118.189 123.247 117.785 121.945C117.395 120.63 117.199 119.204 117.199 117.668ZM120.832 117.258V117.668C120.832 118.723 120.936 119.712 121.145 120.637C121.366 121.561 121.704 122.375 122.16 123.078C122.616 123.781 123.195 124.335 123.898 124.738C124.602 125.129 125.441 125.324 126.418 125.324C127.616 125.324 128.599 125.07 129.367 124.562C130.148 124.055 130.773 123.384 131.242 122.551C131.711 121.717 132.076 120.812 132.336 119.836V115.129C132.18 114.413 131.952 113.723 131.652 113.059C131.366 112.382 130.988 111.783 130.52 111.262C130.064 110.728 129.497 110.305 128.82 109.992C128.156 109.68 127.368 109.523 126.457 109.523C125.467 109.523 124.615 109.732 123.898 110.148C123.195 110.552 122.616 111.112 122.16 111.828C121.704 112.531 121.366 113.352 121.145 114.289C120.936 115.214 120.832 116.203 120.832 117.258ZM144.602 106.867V128H140.969V106.867H144.602ZM140.695 101.262C140.695 100.676 140.871 100.181 141.223 99.7773C141.587 99.3737 142.121 99.1719 142.824 99.1719C143.514 99.1719 144.042 99.3737 144.406 99.7773C144.784 100.181 144.973 100.676 144.973 101.262C144.973 101.822 144.784 102.303 144.406 102.707C144.042 103.098 143.514 103.293 142.824 103.293C142.121 103.293 141.587 103.098 141.223 102.707C140.871 102.303 140.695 101.822 140.695 101.262ZM154.016 111.379V128H150.402V106.867H153.82L154.016 111.379ZM153.156 116.633L151.652 116.574C151.665 115.129 151.88 113.794 152.297 112.57C152.714 111.333 153.299 110.259 154.055 109.348C154.81 108.436 155.708 107.733 156.75 107.238C157.805 106.73 158.97 106.477 160.246 106.477C161.288 106.477 162.225 106.62 163.059 106.906C163.892 107.18 164.602 107.622 165.188 108.234C165.786 108.846 166.242 109.641 166.555 110.617C166.867 111.581 167.023 112.759 167.023 114.152V128H163.391V114.113C163.391 113.007 163.228 112.121 162.902 111.457C162.577 110.78 162.102 110.292 161.477 109.992C160.852 109.68 160.083 109.523 159.172 109.523C158.273 109.523 157.453 109.712 156.711 110.09C155.982 110.467 155.35 110.988 154.816 111.652C154.296 112.316 153.885 113.078 153.586 113.938C153.299 114.784 153.156 115.682 153.156 116.633ZM186.203 106.867H189.484V127.551C189.484 129.413 189.107 131.001 188.352 132.316C187.596 133.632 186.542 134.628 185.188 135.305C183.846 135.995 182.297 136.34 180.539 136.34C179.81 136.34 178.951 136.223 177.961 135.988C176.984 135.767 176.021 135.383 175.07 134.836C174.133 134.302 173.345 133.579 172.707 132.668L174.602 130.52C175.487 131.587 176.411 132.329 177.375 132.746C178.352 133.163 179.315 133.371 180.266 133.371C181.411 133.371 182.401 133.156 183.234 132.727C184.068 132.297 184.712 131.659 185.168 130.812C185.637 129.979 185.871 128.951 185.871 127.727V111.516L186.203 106.867ZM171.652 117.668V117.258C171.652 115.643 171.841 114.178 172.219 112.863C172.609 111.535 173.163 110.396 173.879 109.445C174.608 108.495 175.487 107.766 176.516 107.258C177.544 106.737 178.703 106.477 179.992 106.477C181.32 106.477 182.479 106.711 183.469 107.18C184.471 107.635 185.318 108.306 186.008 109.191C186.711 110.064 187.264 111.118 187.668 112.355C188.072 113.592 188.352 114.992 188.508 116.555V118.352C188.365 119.901 188.085 121.294 187.668 122.531C187.264 123.768 186.711 124.823 186.008 125.695C185.318 126.568 184.471 127.238 183.469 127.707C182.466 128.163 181.294 128.391 179.953 128.391C178.69 128.391 177.544 128.124 176.516 127.59C175.5 127.056 174.628 126.307 173.898 125.344C173.169 124.38 172.609 123.247 172.219 121.945C171.841 120.63 171.652 119.204 171.652 117.668ZM175.266 117.258V117.668C175.266 118.723 175.37 119.712 175.578 120.637C175.799 121.561 176.132 122.375 176.574 123.078C177.03 123.781 177.609 124.335 178.312 124.738C179.016 125.129 179.855 125.324 180.832 125.324C182.03 125.324 183.02 125.07 183.801 124.562C184.582 124.055 185.201 123.384 185.656 122.551C186.125 121.717 186.49 120.812 186.75 119.836V115.129C186.607 114.413 186.385 113.723 186.086 113.059C185.799 112.382 185.422 111.783 184.953 111.262C184.497 110.728 183.931 110.305 183.254 109.992C182.577 109.68 181.783 109.523 180.871 109.523C179.882 109.523 179.029 109.732 178.312 110.148C177.609 110.552 177.03 111.112 176.574 111.828C176.132 112.531 175.799 113.352 175.578 114.289C175.37 115.214 175.266 116.203 175.266 117.258ZM213.742 106.867V109.641H202.316V106.867H213.742ZM206.184 101.73H209.797V122.766C209.797 123.482 209.908 124.022 210.129 124.387C210.35 124.751 210.637 124.992 210.988 125.109C211.34 125.227 211.717 125.285 212.121 125.285C212.421 125.285 212.733 125.259 213.059 125.207C213.397 125.142 213.651 125.09 213.82 125.051L213.84 128C213.553 128.091 213.176 128.176 212.707 128.254C212.251 128.345 211.698 128.391 211.047 128.391C210.161 128.391 209.348 128.215 208.605 127.863C207.863 127.512 207.271 126.926 206.828 126.105C206.398 125.272 206.184 124.152 206.184 122.746V101.73ZM221.594 98V128H217.98V98H221.594ZM220.734 116.633L219.23 116.574C219.243 115.129 219.458 113.794 219.875 112.57C220.292 111.333 220.878 110.259 221.633 109.348C222.388 108.436 223.286 107.733 224.328 107.238C225.383 106.73 226.548 106.477 227.824 106.477C228.866 106.477 229.803 106.62 230.637 106.906C231.47 107.18 232.18 107.622 232.766 108.234C233.365 108.846 233.82 109.641 234.133 110.617C234.445 111.581 234.602 112.759 234.602 114.152V128H230.969V114.113C230.969 113.007 230.806 112.121 230.48 111.457C230.155 110.78 229.68 110.292 229.055 109.992C228.43 109.68 227.661 109.523 226.75 109.523C225.852 109.523 225.031 109.712 224.289 110.09C223.56 110.467 222.928 110.988 222.395 111.652C221.874 112.316 221.464 113.078 221.164 113.938C220.878 114.784 220.734 115.682 220.734 116.633ZM248.781 128.391C247.31 128.391 245.975 128.143 244.777 127.648C243.592 127.141 242.57 126.431 241.711 125.52C240.865 124.608 240.214 123.527 239.758 122.277C239.302 121.027 239.074 119.66 239.074 118.176V117.355C239.074 115.637 239.328 114.107 239.836 112.766C240.344 111.411 241.034 110.266 241.906 109.328C242.779 108.391 243.768 107.681 244.875 107.199C245.982 106.717 247.128 106.477 248.312 106.477C249.823 106.477 251.125 106.737 252.219 107.258C253.326 107.779 254.23 108.508 254.934 109.445C255.637 110.37 256.158 111.464 256.496 112.727C256.835 113.977 257.004 115.344 257.004 116.828V118.449H241.223V115.5H253.391V115.227C253.339 114.289 253.143 113.378 252.805 112.492C252.479 111.607 251.958 110.878 251.242 110.305C250.526 109.732 249.549 109.445 248.312 109.445C247.492 109.445 246.737 109.621 246.047 109.973C245.357 110.311 244.764 110.819 244.27 111.496C243.775 112.173 243.391 113 243.117 113.977C242.844 114.953 242.707 116.079 242.707 117.355V118.176C242.707 119.178 242.844 120.122 243.117 121.008C243.404 121.88 243.814 122.648 244.348 123.312C244.895 123.977 245.552 124.497 246.32 124.875C247.102 125.253 247.987 125.441 248.977 125.441C250.253 125.441 251.333 125.181 252.219 124.66C253.104 124.139 253.879 123.443 254.543 122.57L256.73 124.309C256.275 124.999 255.695 125.656 254.992 126.281C254.289 126.906 253.423 127.414 252.395 127.805C251.379 128.195 250.174 128.391 248.781 128.391ZM271.242 106.867H274.875V130.52C274.875 131.809 274.667 132.902 274.25 133.801C273.846 134.699 273.234 135.376 272.414 135.832C271.607 136.301 270.585 136.535 269.348 136.535C269.022 136.535 268.645 136.503 268.215 136.438C267.772 136.372 267.401 136.294 267.102 136.203L267.121 133.293C267.368 133.345 267.648 133.384 267.961 133.41C268.273 133.449 268.547 133.469 268.781 133.469C269.315 133.469 269.764 133.371 270.129 133.176C270.493 132.98 270.767 132.668 270.949 132.238C271.145 131.809 271.242 131.236 271.242 130.52V106.867ZM270.871 101.262C270.871 100.676 271.053 100.181 271.418 99.7773C271.783 99.3737 272.31 99.1719 273 99.1719C273.703 99.1719 274.237 99.3737 274.602 99.7773C274.966 100.181 275.148 100.676 275.148 101.262C275.148 101.822 274.966 102.303 274.602 102.707C274.237 103.098 273.703 103.293 273 103.293C272.31 103.293 271.783 103.098 271.418 102.707C271.053 102.303 270.871 101.822 270.871 101.262ZM279.758 117.668V117.219C279.758 115.695 279.979 114.283 280.422 112.98C280.865 111.665 281.503 110.526 282.336 109.562C283.169 108.586 284.178 107.831 285.363 107.297C286.548 106.75 287.876 106.477 289.348 106.477C290.832 106.477 292.167 106.75 293.352 107.297C294.549 107.831 295.565 108.586 296.398 109.562C297.245 110.526 297.889 111.665 298.332 112.98C298.775 114.283 298.996 115.695 298.996 117.219V117.668C298.996 119.191 298.775 120.604 298.332 121.906C297.889 123.208 297.245 124.348 296.398 125.324C295.565 126.288 294.556 127.043 293.371 127.59C292.199 128.124 290.871 128.391 289.387 128.391C287.902 128.391 286.568 128.124 285.383 127.59C284.198 127.043 283.182 126.288 282.336 125.324C281.503 124.348 280.865 123.208 280.422 121.906C279.979 120.604 279.758 119.191 279.758 117.668ZM283.371 117.219V117.668C283.371 118.723 283.495 119.719 283.742 120.656C283.99 121.581 284.361 122.401 284.855 123.117C285.363 123.833 285.995 124.4 286.75 124.816C287.505 125.22 288.384 125.422 289.387 125.422C290.376 125.422 291.242 125.22 291.984 124.816C292.74 124.4 293.365 123.833 293.859 123.117C294.354 122.401 294.725 121.581 294.973 120.656C295.233 119.719 295.363 118.723 295.363 117.668V117.219C295.363 116.177 295.233 115.194 294.973 114.27C294.725 113.332 294.348 112.505 293.84 111.789C293.345 111.06 292.72 110.487 291.965 110.07C291.223 109.654 290.35 109.445 289.348 109.445C288.358 109.445 287.486 109.654 286.73 110.07C285.988 110.487 285.363 111.06 284.855 111.789C284.361 112.505 283.99 113.332 283.742 114.27C283.495 115.194 283.371 116.177 283.371 117.219ZM309.152 125.812L315.031 106.867H318.898L310.422 131.262C310.227 131.783 309.966 132.342 309.641 132.941C309.328 133.553 308.924 134.133 308.43 134.68C307.935 135.227 307.336 135.669 306.633 136.008C305.943 136.359 305.116 136.535 304.152 136.535C303.866 136.535 303.501 136.496 303.059 136.418C302.616 136.34 302.303 136.275 302.121 136.223L302.102 133.293C302.206 133.306 302.368 133.319 302.59 133.332C302.824 133.358 302.987 133.371 303.078 133.371C303.898 133.371 304.595 133.26 305.168 133.039C305.741 132.831 306.223 132.473 306.613 131.965C307.017 131.47 307.362 130.786 307.648 129.914L309.152 125.812ZM304.836 106.867L310.324 123.273L311.262 127.082L308.664 128.41L300.891 106.867H304.836Z" fill="#00B3FF"/>
</svg>
